# xmcd
#
# Track frame offsets:
#        150
#        14067
#        25867
#        43920
#        63257
#        74120
#        95490
#        111400
#        126647
#        140192
#        150157
#        176645
#        190422
#
# Disc length: 2919 seconds
#
# Revision: 3
# Processed by: cddbd v1.5.1PL0 Copyright (c) Steve Scherf et al.
# Submitted via: ExactAudioCopy v0.95a5
#
DISCID=ca0b650d
DTITLE=Gumball - Revolution On Ice
DYEAR=1994
DGENRE=
TTITLE0=Revolution On The Rocks
TTITLE1=Free Grazin'
TTITLE2=With A Little Rain
TTITLE3=Nights On Fire
TTITLE4=Whatcha Gonna Do
TTITLE5=Breath Away
TTITLE6=Gone To The Moon
TTITLE7=It Ain't Nothin'
TTITLE8=Read The News
TTITLE9=The Boat Race
TTITLE10=Trudge
TTITLE11=She's As Beautiful As A Foot
TTITLE12=A Love Supreme
EXTD=YEAR: 1985
EXTT0=
EXTT1=
EXTT2=
EXTT3=
EXTT4=
EXTT5=
EXTT6=
EXTT7=
EXTT8=
EXTT9=
EXTT10=
EXTT11=
EXTT12=
PLAYORDER=
